<?xml version="1.0"?>
<svg version="1.1" xmlns="http://www.w3.org/2000/svg" xmlns:xlink="http://www.w3.org/1999/xlink" width="512" height="512">
    <desc iVinci="yes" version="4.6" gridStep="20" showGrid="no" snapToGrid="no" codePlatform="0"/>
    <g id="Layer1" name="Layer 4" opacity="1">
        <g id="Shape1">
            <desc shapeID="1" type="0" basicInfo-basicType="0" basicInfo-roundedRectRadius="12" basicInfo-polygonSides="6" basicInfo-starPoints="5" bounding="rect(-299.502,-163,599.003,326)" text="" font-familyName="" font-pixelSize="20" font-bold="0" font-underline="0" font-alignment="1" strokeStyle="0" markerStart="0" markerEnd="0" shadowEnabled="0" shadowOffsetX="0" shadowOffsetY="2" shadowBlur="4" shadowOpacity="160" blurEnabled="0" blurRadius="4" transform="matrix(0.80634,0,0,0.915966,254.5,237.697)" pers-center="0,0" pers-size="0,0" pers-start="0,0" pers-end="0,0" locked="0" mesh="" flag=""/>
            <path id="shapePath1" d="M13,88.395 L13,382.558 C13,385.012 14.4505,387 16.2281,387 L492.775,387 C494.557,387 496,385.012 496,382.558 L496,88.395 " style="stroke:#c7c7c7;stroke-opacity:1;stroke-width:1;stroke-linejoin:miter;stroke-miterlimit:2;stroke-linecap:butt;fill-rule:evenodd;fill:#ffffff;fill-opacity:1;"/>
        </g>
        <g id="Shape2">
            <desc shapeID="2" type="0" basicInfo-basicType="0" basicInfo-roundedRectRadius="12" basicInfo-polygonSides="6" basicInfo-starPoints="5" bounding="rect(-299.5,-16,599,32)" text="" font-familyName="" font-pixelSize="20" font-bold="0" font-underline="0" font-alignment="1" strokeStyle="0" markerStart="0" markerEnd="0" shadowEnabled="0" shadowOffsetX="0" shadowOffsetY="2" shadowBlur="4" shadowOpacity="160" blurEnabled="0" blurRadius="4" transform="matrix(0.80634,0,0,0.915966,254.499,74.6555)" pers-center="0,0" pers-size="0,0" pers-start="0,0" pers-end="0,0" locked="0" mesh="" flag=""/>
            <path id="shapePath2" d="M13,63.6639 C13,61.6404 14.0812,60 15.4149,60 L493.583,60 C494.916,60 495.998,61.6404 495.998,63.6639 L495.998,85.6471 C495.998,87.6705 494.916,89.3109 493.583,89.3109 L15.4149,89.3109 C14.0812,89.3109 13,87.6705 13,85.6471 L13,63.6639 Z" style="stroke:#c7c7c7;stroke-opacity:1;stroke-width:1;stroke-linejoin:miter;stroke-miterlimit:2;stroke-linecap:butt;fill-rule:evenodd;fill:url(#linearGradientFill2);fill-opacity:1;"/><defs><linearGradient id="linearGradientFill2" gradientUnits="userSpaceOnUse" x1="13.4031" y1="60" x2="13.4031" y2="60.916"><stop offset="0" stop-color="#ffffff" stop-opacity="1"/><stop offset="1" stop-color="#e1e1e1" stop-opacity="1"/></linearGradient></defs>
        </g>
        <g id="Shape3">
            <desc shapeID="3" type="0" basicInfo-basicType="0" basicInfo-roundedRectRadius="12" basicInfo-polygonSides="6" basicInfo-starPoints="5" bounding="rect(-6,-6,12,12)" text="" font-familyName="" font-pixelSize="20" font-bold="0" font-underline="0" font-alignment="1" strokeStyle="0" markerStart="0" markerEnd="0" shadowEnabled="0" shadowOffsetX="0" shadowOffsetY="2" shadowBlur="4" shadowOpacity="160" blurEnabled="0" blurRadius="4" transform="matrix(0.80634,0,0,0.915966,28.3204,74.6555)" pers-center="0,0" pers-size="0,0" pers-start="0,0" pers-end="0,0" locked="0" mesh="" flag=""/>
            <path id="shapePath3" d="M33.1585,74.6555 C33.1585,77.6907 30.9924,80.1513 28.3204,80.1513 C25.6485,80.1513 23.4824,77.6907 23.4824,74.6555 C23.4824,71.6202 25.6485,69.1597 28.3204,69.1597 C30.9924,69.1597 33.1585,71.6202 33.1585,74.6555 Z" style="stroke:none;fill-rule:evenodd;fill:#d36e6e;fill-opacity:1;"/>
        </g>
        <g id="Shape4">
            <desc shapeID="4" type="0" basicInfo-basicType="0" basicInfo-roundedRectRadius="12" basicInfo-polygonSides="6" basicInfo-starPoints="5" bounding="rect(-6,-6,12,12)" text="" font-familyName="" font-pixelSize="20" font-bold="0" font-underline="0" font-alignment="1" strokeStyle="0" markerStart="0" markerEnd="0" shadowEnabled="0" shadowOffsetX="0" shadowOffsetY="2" shadowBlur="4" shadowOpacity="160" blurEnabled="0" blurRadius="4" transform="matrix(0.80634,0,0,0.915966,42.0282,74.6555)" pers-center="0,0" pers-size="0,0" pers-start="0,0" pers-end="0,0" locked="0" mesh="" flag=""/>
            <path id="shapePath4" d="M46.8663,74.6555 C46.8663,77.6907 44.7002,80.1513 42.0282,80.1513 C39.3563,80.1513 37.1902,77.6907 37.1902,74.6555 C37.1902,71.6202 39.3563,69.1597 42.0282,69.1597 C44.7002,69.1597 46.8663,71.6202 46.8663,74.6555 Z" style="stroke:none;fill-rule:evenodd;fill:#e0b167;fill-opacity:1;"/>
        </g>
        <g id="Shape5">
            <desc shapeID="5" type="0" basicInfo-basicType="0" basicInfo-roundedRectRadius="12" basicInfo-polygonSides="6" basicInfo-starPoints="5" bounding="rect(-6,-6,12,12)" text="" font-familyName="" font-pixelSize="20" font-bold="0" font-underline="0" font-alignment="1" strokeStyle="0" markerStart="0" markerEnd="0" shadowEnabled="0" shadowOffsetX="0" shadowOffsetY="2" shadowBlur="4" shadowOpacity="160" blurEnabled="0" blurRadius="4" transform="matrix(0.80634,0,0,0.915966,56.5423,74.6555)" pers-center="0,0" pers-size="0,0" pers-start="0,0" pers-end="0,0" locked="0" mesh="" flag=""/>
            <path id="shapePath5" d="M56.5423,80.1513 C59.2146,80.1513 61.3804,77.691 61.3804,74.6555 C61.3804,71.6199 59.2146,69.1597 56.5423,69.1597 C53.8701,69.1597 51.7043,71.6199 51.7043,74.6555 C51.7043,77.691 53.8701,80.1513 56.5423,80.1513 Z" style="stroke:none;fill-rule:evenodd;fill:#9bc47c;fill-opacity:1;"/>
        </g>
        <g id="Shape6">
            <desc shapeID="6" type="0" basicInfo-basicType="0" basicInfo-roundedRectRadius="12" basicInfo-polygonSides="6" basicInfo-starPoints="5" bounding="rect(-126.487,-115.283,252.974,230.567)" text="" font-familyName="" font-pixelSize="20" font-bold="0" font-underline="0" font-alignment="1" strokeStyle="0" markerStart="0" markerEnd="0" shadowEnabled="0" shadowOffsetX="0" shadowOffsetY="2" shadowBlur="4" shadowOpacity="160" blurEnabled="0" blurRadius="4" transform="matrix(1.09491,0,0,1.13668,271.028,237.697)" pers-center="0,0" pers-size="0,0" pers-start="0,0" pers-end="0,0" locked="0" mesh="" flag=""/>
            <path id="shapePath6" d="M283.562,366.193 C273.511,351.962 267.38,335.297 261.522,318.907 C250.672,323.317 239.964,329.046 230.04,335.468 C225.487,337.253 238.299,343.107 229.09,346.267 C221.911,349.665 216.162,373.774 213.067,356.452 C214.21,341.015 195.858,344.914 191.6,332.036 C186.105,315.656 164.637,338.571 161.239,325.511 C166.742,316.997 191.601,322.874 175.867,310.12 C171.955,303.266 166.537,302.016 160.869,306.802 C151.885,311.382 142.44,315.27 132.645,317.429 C140.293,310.78 157.995,309.768 166.639,300.641 C163.588,288.307 152.486,278.328 145.04,268.108 C140.731,265.358 125.369,273.076 137.517,266.438 C144.885,263.323 141.608,248.353 133.761,245.898 C129.027,236.509 149.446,257.526 148.689,242.431 C153.61,236.475 161.757,226.655 148.288,227.427 C144.395,229.007 125.701,242.681 135.193,233.224 C142.676,231.064 153.375,219.538 138.492,222.016 C125.054,218.527 165.248,223.222 146.846,213.854 C141.922,207.037 129.286,218.731 133.497,210.883 C136.115,203.127 146.286,209.284 149.979,208.526 C160.496,197.724 127.677,206.109 134.65,201.153 C145.427,198.073 162.657,205.891 168.972,196.016 C166.974,184.853 150.733,182.011 144.939,171.676 C142.605,162.322 126.391,171.978 139.37,164.572 C146.658,160.613 162.137,157.082 147.672,149.883 C143.566,146.553 125.117,126.623 137.8,137.488 C143.787,143.59 149.983,149.466 156.162,155.359 C162.961,153.519 183.26,156.359 171.791,146.372 C163.238,134.394 154.629,121.101 151.328,106.658 C162.394,127.782 177.721,146.925 196.679,160.896 C199.535,146.629 186.451,141.547 177.201,135.888 C168.909,124.977 169.184,107.873 186.194,109.366 C200.619,109.931 210.749,123.334 223.92,128.166 C229.798,127.934 238.285,120.576 231.575,115.228 C224.221,99.6988 239.139,124.345 239.752,130.299 C245.501,138.84 243.256,154.698 251.49,159.664 C257.972,162.42 262.537,149.422 260.402,160.595 C259.767,168.84 261.432,175.6 267.049,166.749 C274.658,159.928 280.954,151.559 282.848,141.043 C286.144,130.309 287.655,119.131 289.341,108.04 C290.775,124.168 284.238,139.309 281.217,154.726 C290.283,160.005 303.279,158.062 313.473,162.509 C325.571,169.425 305.03,160.209 301.472,161.882 C296.961,172.612 292.56,183.406 287.403,193.821 C289.352,201.123 291.301,208.427 293.25,215.733 C309.246,213.872 325.002,209.542 339.98,203.495 C343.013,197.767 315.848,196.256 331.374,189.24 C341.217,187.022 341.284,171.14 347.875,168.888 C356.207,168.303 362.021,171.383 365.383,178.826 C369.85,173.799 380.678,152.957 373.386,169.162 C370.9,173.403 367.386,178.133 374.7,177.769 C385.573,181.375 398.471,180.262 408.686,181.648 C398.35,191.134 381.247,193.093 372.423,202.477 C380.12,214.731 366.543,210.873 360.094,207.835 C355.561,207.028 351.061,210.773 346.539,211.734 C341.207,213.221 317.195,222.076 333.772,222.61 C351.301,222.2 368.459,226.361 386.022,225.804 C393.85,225.986 401.678,226.179 409.496,226.372 C390.357,227.02 370.988,225.395 352.047,228.52 C343.845,228.623 332.25,220.257 322.046,225.576 C314.239,229.987 333.51,232.237 336.071,235.648 C359.196,245.071 383.12,252.3 406.616,260.643 C412.113,266.645 392.854,257.721 389.317,257.37 C379.671,256.256 359.371,240.478 360.072,259.927 C358.517,274.715 345.466,288.889 347.064,302.666 C361.923,316.647 379.813,327.412 398.547,334.777 C415.31,340.131 389.612,337.653 384.226,335.754 C369.455,333.401 355.123,328.923 341.327,323.058 C331.932,323.285 313.112,324.16 308.557,317.272 C318.564,311.51 314.129,307.736 305.523,303.939 C298.319,300.052 291.749,292.448 284.622,289.628 C279.892,291.458 275.447,293.493 277.286,299.563 C277.351,306.337 277.417,313.112 277.472,319.875 C269.249,319.785 261.87,322.865 268.669,332.333 C271.932,344.393 278.884,354.396 284.72,364.66 C287.019,366.968 286.811,371.662 283.582,366.184 L283.562,366.193 M217.322,359.497 C220.406,353.303 225.319,348.335 229.45,342.88 C222.413,336.526 207.131,341.629 213.479,352.962 C213.95,354.212 215.877,364.567 217.322,359.497 M212.004,339.197 C222.584,336.798 230.573,328.363 240.16,325.398 C247.54,320.396 254.219,317.202 262.004,313.963 C261.019,301.368 251.46,292.797 247.978,281.419 C244.989,266.961 232.049,259.004 229.266,245.284 C225.765,233.054 212.592,221.096 201.313,231.553 C193.671,237.51 180.124,237.51 172.55,245.625 C165.331,251.275 144.657,252.627 145.465,262.767 C154.463,272.201 159.913,284.329 168.683,293.514 C169.415,302.073 178.606,304.687 182.272,312.087 C187.916,316.827 189.119,328.319 197.481,332.115 C195.785,338.991 208.437,343.732 212.004,339.197 M206.61,336.104 C201.789,327.841 217.546,332.513 206.61,336.104 M211.848,331.41 C214.572,326.978 214.572,335.832 211.848,331.41 M227.177,328 C229.901,323.567 229.901,332.422 227.177,328 M230.462,323.578 C232.218,318.395 233.494,325.545 230.462,323.578 M240.96,321.339 C243.752,309.017 248.657,325.499 240.96,321.339 M235.388,317.77 C238.748,314.11 235.734,321.681 235.388,317.77 M255.642,313.155 C257.876,310.654 258.128,316.951 255.642,313.155 M243.237,311.326 C242.021,299.754 247.759,313.178 243.237,311.326 M248.492,305.199 C250.77,295.559 255.544,308.733 248.492,305.199 M228.358,302.323 C229.424,298.299 229.039,307.256 228.358,302.323 M197.615,292.764 C200.339,288.33 200.339,297.185 197.615,292.764 M235.486,289.513 C236,276.599 243.445,292.013 235.486,289.513 M226.665,285.603 C225.724,277.418 230.38,289.32 226.665,285.603 M174.266,280.93 C175.22,271.439 179.01,286.534 174.266,280.93 M226.629,273.439 C226.945,263.585 232.331,277.566 226.629,273.439 M203.849,265.892 C202.999,259.55 211.221,268.45 203.849,265.892 M217.322,247.865 C219.679,242.318 219.679,253.4 217.322,247.865 M188.49,246.535 C186.245,240.431 194.826,249.331 188.49,246.535 M208.063,243.965 C209.045,237.794 213.038,248.046 208.063,243.965 M201.446,242.75 C204.805,239.09 201.792,246.659 201.446,242.75 M228.884,339.89 C219.757,334.843 234.357,345.107 228.884,339.89 M385.27,332.649 C372.843,327.386 359.748,320.862 347.299,320.009 C349.28,309.2 324.733,303.892 337.302,316.918 C351.207,328.648 369.952,330.092 386.66,334.843 C389.595,335.446 385.325,331.774 385.27,332.649 M166.442,323.669 C161.284,323.862 161.82,333.24 166.442,323.669 M177.904,324.488 C174.957,321.942 160.996,328.478 173.167,325.965 C174.776,325.613 176.429,325.284 177.904,324.488 M179.287,321.51 C168.958,320.578 174.088,323.078 179.287,321.51 M333.112,319.077 C330.068,306.358 316.381,311.053 313.425,318.327 C317.181,318.27 335.071,325.181 333.112,319.077 M334.327,315.463 C331.393,308.483 324.243,305.266 331.798,314.61 C333.998,317.975 338.729,323.283 334.327,315.463 M353.083,317.77 C350.718,313.463 348.495,322.317 353.083,317.77 M266.377,308.961 C262.862,303.22 263.749,315.656 266.377,308.961 M265.709,297.298 C263.639,284.818 262.644,272.132 262.096,259.47 C262.019,245.887 259.205,232.553 259.271,218.902 C255.997,206.269 248.267,195.191 242.892,183.355 C240.241,174.625 233.999,171.239 232.132,182.501 C228.195,192.131 225.979,203.904 220.671,212.617 C218.374,221.118 228.882,225.006 226.169,234.611 C228.305,241.954 232.793,248.831 238.588,251.07 C238.753,264.687 250.15,274.463 253.72,286.489 C257.914,287.887 261.943,311.041 265.764,299.981 L265.709,297.298 M250.074,258.856 C241.51,247.421 234.214,233.747 232.87,219.118 C234.341,205.774 243.689,228.075 246.821,231.485 C251.003,238.862 261.81,257.753 253.182,261.743 L251.715,260.561 L250.083,258.856 L250.074,258.856 M249.461,227.689 C242.968,221.164 234.59,203.919 237.154,198.828 C245.202,206.899 252.953,219.721 253.074,230.519 C251.618,229.985 250.523,228.78 249.461,227.689 M249.877,212.339 C246.833,205.969 236.326,192.811 240.92,188.497 C245.628,194.26 255.844,208.883 251.377,213.778 L249.877,212.339 M329.115,289.637 C340.097,277.589 350.148,264.505 358.481,250.342 C352.284,246.581 340.48,251.661 332.049,252.093 C325.874,253.866 318.133,252.218 313.82,258.083 C304.841,266.585 293.783,272.076 283.03,277.77 C292.731,287.16 306.079,292.058 318.013,298.004 C322.283,298.822 325.94,291.968 329.115,289.637 M288.8,272.735 C296.203,269.165 313.666,258.152 312.703,255.253 C304.327,264.108 288.604,269.337 281.772,275.713 C284.246,275.088 286.512,273.872 288.8,272.735 M156.799,249.729 C166.746,241.545 179.133,239.067 190.501,233.224 C200.975,225.995 218.774,225.938 219.929,208.954 C223.122,197.863 230.74,184.483 232.757,174.772 C221.918,179.428 210.56,183.301 201.064,190.475 C187.653,192.917 179.026,206.948 172.438,218.118 C162.532,226.018 155.816,238.078 150.009,249.081 C141.323,257.674 154.256,251.082 156.799,249.729 M188.862,229.109 C191.484,224.563 190.608,233.337 188.862,229.109 M327.827,251.115 C323.875,247.228 311.064,254.196 323.974,251.945 L325.725,251.718 L327.827,251.115 M197.621,232.52 C193.029,227.973 195.254,236.827 197.621,232.52 M223.899,225.722 C221.647,220.095 215.136,219.494 220.259,225.018 C218.609,228.12 224.255,229.359 223.899,225.722 M156.014,216.628 C152.369,210.796 136.931,206.639 150.258,214.612 C151.414,215.155 155.452,219.652 156.014,216.628 M371.712,209.009 C366.434,197.294 366.544,175.559 351.171,174.143 C344.985,171.21 344.12,177.765 341.974,182.183 C342.543,188.625 326.174,192.645 332.996,195.942 C345.5,201.21 358.42,205.738 371.383,209.575 L371.712,209.009 M275.042,195.428 C269.622,191.989 261.027,194.79 271.812,195.789 C271.407,194.695 275.524,197.103 275.042,195.428 M267.564,188.231 C262.932,182.001 257.272,183.766 264.914,189.678 C268.637,192.622 275.414,194.653 267.564,188.231 M179.599,172.194 C184.652,158.125 172.09,182.801 177.894,169.383 C194.208,154.249 160.918,153.746 156.744,160.968 C164.173,162.087 173.231,182.02 179.599,172.194 M357.478,172.271 C352.365,169.802 344.087,172.046 354.346,172.973 C354.817,172.781 357.598,173.988 357.478,172.271 M210.267,156.642 C213.54,147.838 212.993,140.071 202.707,146.79 C196.56,146.953 210.885,169.049 210.267,156.642 M208.733,142.81 C214.48,139.847 236.63,139.515 221.881,132.668 C209.019,127.155 198.368,112.633 183.467,114.614 C167.316,117.245 175.91,139.484 188.493,140.263 C195.407,142.245 201.623,147.052 208.733,142.81 M224.75,131.851 C220.388,128.016 200.555,116.874 213.821,126.1 C216.842,127.538 222.329,132.768 224.75,131.851 M176.869,116.548 C185.974,108.984 175.417,111.142 173.32,117.505 L174.397,117.633 L176.869,116.548 M195.983,113.164 C191.852,109.268 195.288,116.924 195.983,113.164 M189.961,111.309 C181.121,109.614 183.875,114.873 189.961,111.309 M280.924,345.52 C281.986,341.497 281.603,350.454 280.924,345.52 M279.698,341.542 C277.716,333.802 278.964,326.072 280.344,338.348 C280.618,338.621 280.541,345.487 279.698,341.542 M277.639,327.334 C278.701,323.31 278.318,332.267 277.639,327.334 M371.724,300.77 C361.028,296.95 370.685,284.299 378.152,294.393 C391.817,301.008 379.411,302.987 371.724,300.77 M374.999,297.314 C364.038,291.46 371.484,302.372 377.221,298.803 L374.999,297.314 M378.283,296.769 C373.455,291.881 367.357,293.336 376.63,296.621 C376.225,296.166 378.656,297.917 378.283,296.769 M355.465,216.61 C356.188,210.79 356.188,222.418 355.465,216.61 M348.721,216.61 C351.447,212.18 351.447,221.032 348.721,216.61 M318.534,157.527 C310.213,151.739 287.844,156.188 289.837,142.457 C295.716,133.132 300.304,105.349 314.723,115.961 C327.359,120.364 302.242,126.641 313.453,135.428 C314.878,141.188 325.366,153.811 318.534,157.527 M316.246,152.1 C316.213,150.848 321.414,156.502 317.932,149.603 C315.994,143.01 308.647,132.003 314.615,145.338 C315.096,154.184 309.84,130.073 305.724,128.353 C301.837,131.932 298.344,137.275 302.965,128.782 C304.289,124.49 321.118,122.148 311.253,119.517 C298.431,114.737 295.059,135.831 290.691,144.831 C293.34,150.247 312.896,155.597 316.246,152.1 M311.494,116.578 C302.953,112.5 314.878,120.386 311.494,116.578 M378.897,153.52 C384.36,141.2 384.36,127.604 385.543,114.4 C386.123,125.101 385.729,145.246 382.291,148.804 C382.094,149.426 377.09,159.154 378.897,153.52 M387.141,146.789 C393.754,144.797 405.087,140.57 409.521,141.182 C402.656,143.677 393.612,147.702 387.141,146.789 M260.121,144.332 C261.182,140.302 260.799,149.267 260.121,144.332 Z" style="stroke:none;fill-rule:evenodd;fill:#000000;fill-opacity:1;"/>
        </g>
        <g id="Shape7">
            <desc shapeID="7" type="0" basicInfo-basicType="0" basicInfo-roundedRectRadius="12" basicInfo-polygonSides="6" basicInfo-starPoints="5" bounding="rect(-61.2096,-26.546,122.419,53.092)" text="" font-familyName="Helvetica" font-pixelSize="20" font-bold="0" font-underline="0" font-alignment="1" strokeStyle="0" markerStart="0" markerEnd="0" shadowEnabled="0" shadowOffsetX="0" shadowOffsetY="2" shadowBlur="4" shadowOpacity="160" blurEnabled="0" blurRadius="4" transform="matrix(1,0,0,1,260.542,413.454)" pers-center="0,0" pers-size="0,0" pers-start="0,0" pers-end="0,0" locked="0" mesh="" flag=""/>
            <path id="shapePath7" d="M199.5,399 C199.35,385.06 197.434,387 211.5,387 L309.5,387 C324.536,387 321.5,387 321.5,399 L321.5,428 C321.5,434.627 316.127,440 309.5,440 L211.5,440 C204.873,440 199.5,434.627 199.5,428 L199.5,399 Z" style="stroke:#c7c7c7;stroke-opacity:1;stroke-width:1;stroke-linejoin:miter;stroke-miterlimit:2;stroke-linecap:butt;fill-rule:evenodd;fill:url(#linearGradientFill7);fill-opacity:1;"/><defs><linearGradient id="linearGradientFill7" gradientUnits="userSpaceOnUse" x1="-38.4584" y1="397.454" x2="-38.4584" y2="398.454"><stop offset="0" stop-color="#ffffff" stop-opacity="1"/><stop offset="1" stop-color="#e1e1e1" stop-opacity="1"/></linearGradient></defs>
        </g>
        <g id="Shape8">
            <desc shapeID="8" type="0" basicInfo-basicType="2" basicInfo-roundedRectRadius="12" basicInfo-polygonSides="6" basicInfo-starPoints="5" bounding="rect(-108.879,-16.2506,217.758,32.5012)" text="" font-familyName="Helvetica" font-pixelSize="20" font-bold="0" font-underline="0" font-alignment="1" strokeStyle="0" markerStart="0" markerEnd="0" shadowEnabled="0" shadowOffsetX="0" shadowOffsetY="2" shadowBlur="4" shadowOpacity="160" blurEnabled="0" blurRadius="4" transform="matrix(1,0,0,1,260.542,460.584)" pers-center="0,0" pers-size="0,0" pers-start="0,0" pers-end="0,0" locked="0" mesh="" flag=""/>
            <path id="shapePath8" d="M151.663,456.333 C151.663,449.706 157.035,444.333 163.663,444.333 L357.421,444.333 C364.048,444.333 369.421,449.706 369.421,456.333 L369.421,464.835 C369.421,471.462 364.048,476.835 357.421,476.835 L163.663,476.835 C157.035,476.835 151.663,471.462 151.663,464.835 L151.663,456.333 Z" style="stroke:#c7c7c7;stroke-opacity:1;stroke-width:1;stroke-linejoin:miter;stroke-miterlimit:2;stroke-linecap:butt;fill-rule:evenodd;fill:url(#linearGradientFill8);fill-opacity:1;"/><defs><linearGradient id="linearGradientFill8" gradientUnits="userSpaceOnUse" x1="-38.4584" y1="444.584" x2="-38.4584" y2="445.584"><stop offset="0" stop-color="#ffffff" stop-opacity="1"/><stop offset="1" stop-color="#e1e1e1" stop-opacity="1"/></linearGradient></defs>
        </g>
    </g>
</svg>
